<svg xmlns="http://www.w3.org/2000/svg" version="1.1" xmlns:xlink="http://www.w3.org/1999/xlink" viewBox="0 0 200 200"><rect width="200" height="200" fill="url('#gradient')"></rect><defs><linearGradient id="gradient" gradientTransform="rotate(136 0.5 0.5)"><stop offset="0%" stop-color="#3c4845"></stop><stop offset="100%" stop-color="#1b7974"></stop></linearGradient></defs><g><g fill="#3df383" transform="matrix(3.1433730588660165,0,0,3.1433730588660165,13.900431779241174,122.03676336119003)" stroke="#c56b22" stroke-width="0.9"><path d="M12.24-14.22L12.24-11.57L7.97-11.57L7.97 0L4.54 0L4.54-11.57L0.35-11.57L0.35-14.22L12.24-14.22ZM11.09-4.82L11.08-5.38Q11.08-6.96 11.70-8.20Q12.31-9.43 13.47-10.10Q14.62-10.76 16.17-10.76L16.17-10.76Q18.54-10.76 19.91-9.29Q21.28-7.82 21.28-5.29L21.28-5.29L21.28-5.18Q21.28-2.71 19.91-1.25Q18.54 0.20 16.19 0.20L16.19 0.20Q13.94 0.20 12.57-1.16Q11.20-2.51 11.09-4.82L11.09-4.82ZM14.38-5.77L14.38-5.18Q14.38-3.71 14.83-3.03Q15.29-2.34 16.19-2.34L16.19-2.34Q17.95-2.34 17.99-5.05L17.99-5.05L17.99-5.38Q17.99-8.22 16.17-8.22L16.17-8.22Q14.52-8.22 14.38-5.77L14.38-5.77ZM29.16-7.40L29.16-4.85L23.29-4.85L23.29-7.40L29.16-7.40ZM36.55 0L31.88 0L31.88-14.22L36.46-14.22Q38.34-14.22 39.84-13.36Q41.35-12.51 42.19-10.95Q43.04-9.39 43.05-7.46L43.05-7.46L43.05-6.81Q43.05-4.85 42.22-3.31Q41.40-1.76 39.90-0.88Q38.40-0.01 36.55 0L36.55 0ZM36.46-11.57L35.30-11.57L35.30-2.64L36.49-2.64Q37.97-2.64 38.76-3.69Q39.55-4.74 39.55-6.81L39.55-6.81L39.55-7.42Q39.55-9.48 38.76-10.53Q37.97-11.57 36.46-11.57L36.46-11.57ZM44.25-4.82L44.24-5.38Q44.24-6.96 44.85-8.20Q45.47-9.43 46.62-10.10Q47.77-10.76 49.33-10.76L49.33-10.76Q51.70-10.76 53.07-9.29Q54.43-7.82 54.43-5.29L54.43-5.29L54.43-5.18Q54.43-2.71 53.06-1.25Q51.69 0.20 49.35 0.20L49.35 0.20Q47.09 0.20 45.72-1.16Q44.36-2.51 44.25-4.82L44.25-4.82ZM47.54-5.77L47.53-5.18Q47.53-3.71 47.99-3.03Q48.45-2.34 49.35-2.34L49.35-2.34Q51.10-2.34 51.14-5.05L51.14-5.05L51.14-5.38Q51.14-8.22 49.33-8.22L49.33-8.22Q47.68-8.22 47.54-5.77L47.54-5.77Z"></path></g></g></svg>